<svg xmlns="http://www.w3.org/2000/svg" width="750" height="471"><path fill="#D9222A" d="M434 236a180 180 0 11-359-1 180 180 0 01359 1"/><path fill="#EE9F2D" d="M495 56a179 179 0 00-138 65h36l14 19h-64l-10 19h84l8 19H325l-5 19h110a180 180 0 01-5 96H325l8 19h84l-10 19h-64l14 19h36l-18 19A180 180 0 10495 56"/><path d="M651 336a6 6 0 1112 0 6 6 0 01-12 0zm6 4a4 4 0 100-9 4 4 0 000 9zm-1-2h-1v-5h3l1 2-1 1 1 2h-1l-1-2h-1v2zm0-3h2l-1-1h-1v1zM213 255h-5c-11 0-16 4-16 11 0 5 2 8 7 8 8 0 13-8 14-19zm14 33h-16v-8c-5 7-12 9-20 9-11 0-18-8-18-20 0-18 12-28 34-28h8l1-5c0-4-4-6-13-6s-17 2-20 3l2-17c10-2 16-4 24-4 16 0 25 8 25 22l-1 15-6 39zM165 288h-20l11-70-25 70h-13l-2-69-11 69H86l16-91h28l1 51 18-51h31l-15 91M520 255h-5c-11 0-16 4-16 11 0 5 2 8 7 8 8 0 13-8 14-19zm14 33h-16v-8c-5 7-12 9-20 9-11 0-18-8-18-20 0-18 12-28 34-28h8l1-5c0-4-4-6-13-6s-17 2-20 3l2-17c10-2 16-4 24-4 16 0 25 8 25 22l-1 15-6 39zM313 287c-5 2-9 2-14 2-10 0-15-5-15-16l3-20 8-50h19l-2 11h12l-3 18h-11l-6 34c0 4 2 5 7 5h5l-3 16M373 286c-7 2-13 3-20 3-22 0-33-11-33-33 0-25 14-44 34-44 16 0 26 11 26 27l-2 18h-39c-1 11 6 16 17 16 7 0 13-2 20-5l-3 18zm-11-43c0-2 2-14-9-14-6 0-11 5-13 14h22zM238 238c0 9 5 15 15 20 8 4 9 5 9 8 0 5-3 7-11 7-6 0-11-1-17-3l-3 17c5 1 8 2 20 2 21 0 30-7 30-24 0-10-4-16-13-21-8-4-9-5-9-8 0-4 3-6 9-6l14 1 3-17-17-2c-22 0-30 12-30 26M468 214c5 0 10 2 17 5l3-19c-3-2-13-8-21-8-13 0-24 6-32 17-11-4-16 4-22 11l-5 2 1-8h-18l-10 69-1 5h19c4-21 5-35 6-44l8-4c1-4 4-5 11-5l-1 15c0 24 13 39 34 39 5 0 10 0 17-2l4-21c-7 3-12 5-17 5-11 0-18-9-18-22 0-21 10-35 25-35"/><path fill="#FFF" d="M170 283h-19l11-70-25 70h-13l-2-70-12 70H92l15-91h28l1 56 19-56h30l-15 91"/><path d="M633 197l-5 26c-5-7-11-12-18-12-10 0-19 8-25 19l-17-5 1-11h-18c-2 23-6 46-10 69l-1 5h20l6-42c7-6 10-12 17-11-3 7-5 15-5 24 0 18 9 30 23 30 8 0 13-2 18-8l-1 7h19l15-91h-19zm-25 74c-6 0-10-5-10-15 0-14 6-24 15-24 7 0 11 5 11 14 0 15-7 25-16 25z"/><path fill="#FFF" d="M218 250l-4-1c-11 0-17 4-17 12 0 4 3 7 7 7 8 0 14-7 14-18zm14 33h-16l1-8c-5 6-12 9-21 9-10 0-18-8-18-20 0-18 13-29 35-29l8 1v-5c0-5-3-7-12-7-10 0-18 3-21 4l3-17c10-3 16-4 23-4 17 0 26 8 26 22l-2 14-6 40zM494 194l-3 20c-7-4-12-5-18-5-14 0-25 14-25 34 0 14 7 22 19 22 4 0 10-1 16-4l-3 20-18 3c-20 0-34-15-34-39 0-33 18-56 44-56 9 0 19 4 22 5M525 250l-4-1c-11 0-17 4-17 12 0 4 3 7 7 7 8 0 14-7 14-18zm14 33h-16l1-8c-5 6-12 9-21 9-10 0-18-8-18-20 0-18 13-29 35-29l8 1v-5c0-5-3-7-12-7-10 0-18 3-21 4l3-17c10-3 16-4 23-4 17 0 26 8 26 22l-2 14-6 40zM319 282l-14 2c-10 0-15-6-15-16-1-4 1-12 2-20l9-51h19l-2 12h10l-3 17h-10l-5 34c0 4 2 6 6 6l6-1-3 17M378 281c-6 2-13 3-20 3-21 0-33-11-33-33 0-25 15-44 34-44 16 0 27 10 27 27l-3 18h-38c-2 11 5 15 16 15 7 0 14-1 21-4l-4 18zm-11-44c1-1 3-13-9-13-6 0-10 5-12 13h21zM244 232c0 9 5 16 15 21 8 3 9 5 9 8 0 5-3 7-11 7l-18-3-2 17c4 1 8 2 20 2 21 0 30-8 30-25 0-10-4-16-14-20-8-4-9-5-9-8 0-4 3-6 10-6l14 1 2-18-17-1c-21 0-29 11-29 25M643 283h-19l1-7c-5 6-11 8-18 8-14 0-24-12-24-31 0-24 15-45 32-45 8 0 13 3 19 10l4-26h19l-14 91zm-29-17c9 0 15-11 15-25 0-10-3-15-10-15-9 0-15 10-15 25 0 10 3 15 10 15zM557 209l-10 69-1 5h19c7-46 9-54 20-53 2-10 5-18 7-22-8-1-12 3-18 12l1-11h-18M397 209l-11 69-1 5h20c7-46 9-54 20-53 1-10 5-18 7-22-8-1-13 3-19 12 1-4 2-8 1-11h-17M651 277a6 6 0 1112 0 6 6 0 01-12 0zm6 4a4 4 0 100-8 4 4 0 000 8zm-1-2h-1v-5h2l1 1 1 1-1 1 1 2h-1l-1-2h-1v2zm0-2h1l1-1-1-1h-1v2z"/></svg>